<?xml version="1.0" encoding="utf-8"?>
<!-- Generator: Adobe Illustrator 25.2.1, SVG Export Plug-In . SVG Version: 6.00 Build 0)  -->
<svg version="1.1" id="Layer_1" xmlns="http://www.w3.org/2000/svg" xmlns:xlink="http://www.w3.org/1999/xlink" x="0px" y="0px"
	 viewBox="0 0 200 70" style="enable-background:new 0 0 200 70;" xml:space="preserve">
<style type="text/css">
	.st0{fill:#040404;}
	.st1{fill:#FCC93E;}
	.st2{fill:#C79E3E;}
	.st3{fill:#2C316E;}
	.st4{fill:#1D315B;}
	.st5{fill:url(#SVGID_1_);}
	.st6{fill:#1A3C6C;}
	.st7{fill:#3760A3;}
	.st8{filter:url(#Adobe_OpacityMaskFilter);}
	.st9{fill:#FFFFFF;}
	.st10{mask:url(#Mask_Mask_1_10_);}
	.st11{fill:#FFCA3D;}
	.st12{filter:url(#Adobe_OpacityMaskFilter_1_);}
	.st13{mask:url(#Mask_Mask_1_9_);}
	.st14{fill:url(#SVGID_2_);}
	.st15{fill:#0776B6;}
	.st16{filter:url(#Adobe_OpacityMaskFilter_2_);}
	.st17{mask:url(#Mask_Mask_1_8_);}
	.st18{filter:url(#Adobe_OpacityMaskFilter_3_);}
	.st19{mask:url(#Mask_Mask_1_7_);}
	.st20{filter:url(#Adobe_OpacityMaskFilter_4_);}
	.st21{mask:url(#Mask_Mask_1_6_);}
	.st22{fill:url(#SVGID_3_);}
	.st23{fill:#7D7E6A;}
	.st24{filter:url(#Adobe_OpacityMaskFilter_5_);}
	.st25{mask:url(#Mask_Mask_2_8_);}
	.st26{filter:url(#Adobe_OpacityMaskFilter_6_);}
	.st27{mask:url(#Mask_Mask_2_7_);}
	.st28{fill:url(#SVGID_4_);}
	.st29{filter:url(#Adobe_OpacityMaskFilter_7_);}
	.st30{mask:url(#Mask_Mask_2_6_);}
	.st31{filter:url(#Adobe_OpacityMaskFilter_8_);}
	.st32{mask:url(#Mask_Mask_2_5_);}
	.st33{fill:url(#SVGID_5_);}
	.st34{fill:url(#SVGID_6_);}
	.st35{fill:url(#SVGID_7_);}
</style>
<g>
	<g transform="matrix( 1, 0, 0, 1, 0,0) ">
		<g>
			<g id="Layer7_0_FILL">
				<path class="st0" d="M186.3,57.6L186.3,57.6c-0.7,0-1.2,0.2-1.7,0.7c-0.5,0.5-0.7,1-0.7,1.7c0,0.7,0.2,1.2,0.7,1.7
					c0.5,0.5,1,0.7,1.7,0.7c0.7,0,1.2-0.2,1.7-0.7c0.5-0.5,0.7-1,0.7-1.7c0-0.7-0.2-1.2-0.7-1.7C187.5,57.9,186.9,57.6,186.3,57.6
					 M186.3,58L186.3,58c0.5,0,1,0.2,1.4,0.6c0.4,0.4,0.6,0.9,0.6,1.4c0,0.6-0.2,1-0.6,1.4c-0.4,0.4-0.8,0.6-1.3,0.6
					c-0.5,0-1-0.2-1.4-0.6c-0.4-0.4-0.6-0.9-0.6-1.4c0-0.6,0.2-1,0.6-1.4C185.3,58.2,185.7,58,186.3,58 M187.2,60.7
					c-0.1-0.4-0.2-0.6-0.4-0.6v0c0.3-0.1,0.5-0.3,0.5-0.6c0-0.2-0.1-0.4-0.2-0.6c-0.2-0.1-0.5-0.2-0.8-0.2c-0.3,0-0.5,0-0.7,0.1v2.6
					h0.4v-1.1h0.3c0.3,0,0.5,0.2,0.6,0.5c0.1,0.4,0.1,0.6,0.2,0.7h0.4C187.2,61.2,187.2,60.9,187.2,60.7 M185.8,59.9V59l0.3,0
					c0.4,0,0.7,0.2,0.7,0.5c0,0.3-0.2,0.5-0.7,0.5H185.8z"/>
			</g>
		</g>
	</g>
	<g transform="matrix( 1, 0, 0, 1, 426.8,214.6) ">
		<g transform="matrix( 1, 0, 0, 1, 2.35,-1.65) ">
			<g transform="matrix( 1, 0, 0, 1, 0,0) ">
				<g>
					<g id="N_BAckground_0_Layer0_0_FILL">
						<path class="st1" d="M-247.9-188.6l-3.8,15.9l-3.7-17.8l-11.2-2.3l-0.2,3.1l2.5,0.6l-2.9,30.6l6.5,1l3-16.9l0.5,21.9l6,1.7
							l11.9-36.2L-247.9-188.6z"/>
					</g>
				</g>
			</g>
		</g>
		<g transform="matrix( 1, 0, 0, 1, 2.9,-1.65) ">
			<g transform="matrix( 1, 0, 0, 1, 0,0) ">
				<g>
					<g id="N_Shadows_0_Layer0_0_FILL">
						<path class="st2" d="M-256-190.4l-11.2-2.3l-0.1,1.8l9.7,2l3.8,17.8l1.5-1.5L-256-190.4 M-258.4-174.2l-1.5,1.5l-2.7,15.2
							l1.2,0.2L-258.4-174.2 M-248.9-186.9l7.4,1.6l-11.4,34.4l0.9,0.3l11.9-36.2l-8.5-1.9L-248.9-186.9z"/>
					</g>
				</g>
			</g>
		</g>
		<g transform="matrix( 1, 0, 0, 1, -14.2,0) ">
			<g transform="matrix( 1, 0, 0, 1, 0,0) ">
				<g>
					<g id="N_Edge_0_Layer0_0_FILL">
						<path class="st3" d="M-250.4-188.2l-2.9,1.6l-3.7,30.9l3.1-1.7h0L-250.4-188.2z"/>
						<path class="st4" d="M-253-188.8l-3.2,1.6l2.8,0.6l2.9-1.6L-253-188.8L-253-188.8 M-233.4-193.9l-2.3,1.3l0.9,4.5
							L-233.4-193.9z"/>
						
							<linearGradient id="SVGID_1_" gradientUnits="userSpaceOnUse" x1="-667.2328" y1="54.4823" x2="-667.2328" y2="46.319" gradientTransform="matrix(1 0 0 -1 412.6 -142.6)">
							<stop  offset="0" style="stop-color:#14244B"/>
							<stop  offset="1" style="stop-color:#144D8E"/>
						</linearGradient>
						<path class="st5" d="M-256.3-196.6l0.1,9.4l3.2-1.6v0l-0.1-9.5L-256.3-196.6z"/>
						<path class="st6" d="M-232.8-148.3l-10.7-3.4l-0.1-4.2l-10.3-1.5h0l-3.1,1.7l10.3,1.5l0.1,4.2l10.7,3.4L-232.8-148.3z"/>
					</g>
				</g>
			</g>
		</g>
		<g transform="matrix( 1, 0, 0, 1, 3.2,-1.7) ">
			<g transform="matrix( 1, 0, 0, 1, 0,0) ">
				<g>
					<g id="N_Border_0_Layer0_0_FILL">
						<path class="st7" d="M-236.2-188.7l-14.6-3.5l-1.4,5.7l-1.3-6.3l-17.1-3.8l0.1,9.5l2.6,0.6l-3.5,30.9l10.3,1.5l0.1,4.2
							l10.7,3.4L-236.2-188.7 M-252.6-172.6l3.8-15.9l8.5,1.9l-11.9,36.2l-6-1.7l-0.5-21.9l-3,16.9l-6.5-1l2.9-30.6l-2.5-0.6
							l0.2-3.1l11.2,2.3L-252.6-172.6z"/>
					</g>
				</g>
			</g>
		</g>
	</g>
	<g transform="matrix( 1, 0, 0, 1, 384.4,211.5) ">
		<g transform="matrix( 1, 0, 0, 1, 1.4,-1.2) ">
			<g transform="matrix( 1, 0, 0, 1, 0,0) ">
				<g>
					<g id="O_2_Background_0_Layer0_0_FILL">
						<path class="st1" d="M-220.9-174.3c-0.2-0.9-0.6-1.7-1-2.5c-0.6-1-1.3-1.8-2.3-2.4c-1.2-0.9-2.7-1.4-4.3-1.6
							c-1.2-0.1-2.5,0-3.8,0.3c-0.4,0.1-0.9,0.3-1.4,0.4c-1.5,0.6-2.9,1.4-4.1,2.5c-1,0.9-1.9,2-2.6,3.3c-1.5,2.6-2,5.2-1.4,7.8
							c0.5,2.1,1.6,3.8,3.3,5c1,0.7,2.1,1.2,3.4,1.5c0.9,0.2,1.8,0.2,2.7,0.2c1.1-0.1,2.2-0.3,3.3-0.8c1.1-0.4,2.1-0.9,2.9-1.5
							c1.2-0.8,2.2-1.8,3-3c1-1.4,1.7-2.8,2.1-4.4C-220.6-171.1-220.5-172.7-220.9-174.3z"/>
					</g>
				</g>
			</g>
		</g>
		<g transform="matrix( 1, 0, 0, 1, 5.15,-4.6) ">
			<g transform="matrix( 1, 0, 0, 1, 0,0) ">
				<g>
					<g id="O_2_Shadows_0_Layer0_0_FILL">
						<path class="st2" d="M-232.9-164.2c1.1-0.6,2-1.5,2.9-2.6c0,0,0,0,0,0c-0.2,0.2-0.4,0.4-0.6,0.5c-1.1,1-2.5,1.4-4,1.4
							c-0.5,0-1-0.1-1.4-0.2c-1-0.3-1.8-0.8-2.5-1.5c-1-1.1-1.5-2.3-1.3-3.7c0.1-1.4,0.5-2.4,1-2.8c0.5-0.5,0.5-0.5,0-0.2
							c-0.5,0.3-1,1-1.7,1.9c-0.6,1-0.9,1.9-1,2.7c-0.1,1.5,0.4,2.7,1.5,3.8c1,1,2.3,1.6,3.9,1.6c0,0,0.1,0,0.1,0
							C-235-163.3-234-163.6-232.9-164.2 M-227.2-171.8c0.5,0.8,0.8,1.6,1,2.5c0.4,1.5,0.4,3.1,0,4.7c-0.4,1.6-1.1,3-2.1,4.4
							l-0.6,0.8c2.2-1.9,3.6-3.7,4.4-5.4c1.8-4,0.6-8-3.4-11.9c-3-1-5.7-1.2-8.1-0.7c-1.1,0.2-2.1,0.6-3,1.2c-1,0.6-1.9,1.3-2.6,2.1
							c-0.6,0.8-0.9,1.2-1,1.3c1.2-1,2.4-1.7,3.8-2.2c1-0.4,1.9-0.6,2.9-0.7c0.8-0.1,1.5-0.1,2.3,0c1.6,0.2,3.1,0.7,4.3,1.6
							C-228.5-173.5-227.7-172.7-227.2-171.8 M-230.7-169.9c0.7-0.6,1-1.2,1.1-2.1c0-0.3,0-0.5-0.1-0.8c-0.1,0.1-0.6,0.6-1.5,1.5
							c0.1,0.2,0.1,0.5,0.1,0.8c0,0.3-0.1,0.6-0.2,1C-231.1-169.5-230.9-169.7-230.7-169.9 M-233.2-175.1L-233.2-175.1
							C-233.2-175.1-233.2-175.1-233.2-175.1l-0.4,0c-0.7,0.1-1.3,0.4-1.8,0.9c-0.2,0.1-0.3,0.3-0.4,0.5c-0.1,0.1-0.2,0.2-0.2,0.4
							c0,0,0,0.1,0,0.1c0,0,0,0,0,0c0.4-0.2,0.9-0.3,1.4-0.3C-234.7-173.5-234.2-174-233.2-175.1z"/>
					</g>
				</g>
			</g>
		</g>
		<g transform="matrix( 1, 0, 0, 1, -8.85,0.65) ">
			<g transform="matrix( 1, 0, 0, 1, 0,0) ">
				<g>
					<g id="O_2_Edge_0_Layer0_0_FILL">
						<path class="st4" d="M-224.5-184.6c0.3-0.1,0.6-0.2,0.9-0.3c-0.8,0.2-1.6,0.4-2.3,0.8c-1.3,0.5-2.4,1.2-3.4,2
							c-0.9,0.6-1.8,1.5-2.7,2.7c-1.6,1.9-2.6,3.9-3.2,6.2c-0.4,1.3-0.6,2.6-0.5,3.8c0,1,0.1,1.9,0.3,2.9c0.4,1.7,1,3.2,2,4.5
							c0.9,1.3,2.1,2.3,3.5,3.1l0.9,0.4c1,0.4,2.1,0.7,3.2,0.9c0.5,0,0.9,0,1.4,0.1c0.2,0,0.4,0,0.7,0c1.4-0.1,2.7-0.4,4.2-0.9
							c0.4-0.2,0.9-0.4,1.4-0.7c0.7-0.3,1.4-0.7,1.9-1.1c-0.5,0.3-1,0.5-1.4,0.6c-1.5,0.5-2.9,0.9-4.3,0.9c-0.7,0-1.5,0-2.2-0.1
							c-1.1-0.1-2.2-0.4-3.4-0.9l-0.9-0.4c-1.5-0.8-2.7-1.8-3.7-3.1c-1-1.3-1.7-2.8-2.1-4.5c-0.5-2.1-0.4-4.3,0.2-6.5
							c0.6-2.2,1.7-4.2,3.3-6c0.9-1.1,1.8-1.9,2.8-2.5C-227-183.4-225.8-184-224.5-184.6z"/>
					</g>
				</g>
			</g>
		</g>
		<g transform="matrix( 1, 0, 0, 1, 1.25,-1.25) ">
			<g transform="matrix( 1, 0, 0, 1, 0,0) ">
				<g>
					<g id="O_2_Border_0_Layer0_0_FILL">
						<path class="st7" d="M-221.4-180.5c-0.5-0.5-1.3-1.1-2.3-1.6c0,0-0.1,0-0.1,0c-1.6-0.8-3.4-1.3-5.2-1.4c-1.1,0-2.1,0-3.2,0.2
							c-0.8,0.1-1.7,0.4-2.5,0.7c-1.3,0.5-2.4,1.1-3.5,1.9c-0.9,0.6-1.8,1.4-2.8,2.5c-1.6,1.8-2.7,3.8-3.3,6
							c-0.7,2.2-0.7,4.4-0.2,6.5c0.4,1.7,1.1,3.1,2.1,4.5c1,1.3,2.2,2.3,3.7,3.1l0.9,0.4c1.1,0.5,2.3,0.8,3.4,0.9
							c0.7,0.1,1.5,0.1,2.2,0.1c1.4-0.1,2.9-0.4,4.3-0.9c0.4-0.1,0.9-0.4,1.5-0.7c1.2-0.5,2.2-1.2,3-2c2.1-1.8,3.7-4,4.7-6.6
							c1-2.6,1.2-5.2,0.6-7.7C-218.6-177.1-219.7-179-221.4-180.5 M-224-179.1c0.9,0.6,1.7,1.4,2.3,2.4c0.4,0.8,0.8,1.6,1,2.5
							c0.4,1.5,0.3,3.1,0,4.7c-0.4,1.6-1.1,3-2.1,4.4c-0.9,1.2-1.9,2.2-3,3c-0.9,0.6-1.8,1.2-2.9,1.5c-1.1,0.4-2.2,0.7-3.3,0.8
							c-0.9,0.1-1.8,0-2.7-0.2c-1.3-0.2-2.4-0.7-3.4-1.5c-1.7-1.2-2.8-2.9-3.3-5c-0.6-2.6-0.2-5.2,1.4-7.8c0.7-1.2,1.6-2.3,2.6-3.3
							c1.2-1.1,2.6-1.9,4.1-2.5c0.5-0.2,0.9-0.3,1.4-0.4c1.3-0.3,2.5-0.4,3.8-0.3C-226.7-180.5-225.3-180-224-179.1 M-229.6-178.4
							l0.3,0c0,0,0,0,0,0c-0.2,0-0.5-0.1-1-0.1c-0.7,0-1.3,0-1.8,0.2c-0.8,0.2-1.5,0.6-2.2,1.1c-0.1,0.1-0.1,0.1-0.2,0.2
							c-1,0.9-1.5,2-1.6,3.3c-0.1,1.5,0.4,2.7,1.5,3.8c0.7,0.7,1.5,1.2,2.5,1.5c0.4,0.1,0.9,0.2,1.4,0.2c1.6,0.1,2.9-0.4,4-1.4
							c0.2-0.2,0.4-0.4,0.6-0.5c0.8-0.9,1.2-1.9,1.2-3.1c0-0.9-0.2-1.8-0.8-2.7c0,0,0,0,0,0c0,0,0,0,0,0c0,0,0,0,0,0
							c0,0.2,0.1,0.5,0.1,0.8c0,0.8-0.4,1.5-1.1,2.1c-0.2,0.2-0.4,0.3-0.7,0.4c-0.5,0.2-1.1,0.4-1.7,0.3c-0.9,0-1.7-0.4-2.4-1
							c-0.2-0.2-0.4-0.5-0.6-0.8c-0.2-0.4-0.3-0.9-0.3-1.4c0-0.4,0.1-0.8,0.3-1.1c0.1-0.1,0.1-0.3,0.2-0.4c0.1-0.2,0.3-0.3,0.4-0.5
							C-230.9-178-230.3-178.3-229.6-178.4z"/>
					</g>
				</g>
			</g>
		</g>
	</g>
	<g transform="matrix( 1, 0, 0, 1, 341.9,203.55) ">
		<defs>
			<filter id="Adobe_OpacityMaskFilter" filterUnits="userSpaceOnUse" x="-222.5" y="-187.2" width="28.8" height="38.1">
				<feColorMatrix  type="matrix" values="1 0 0 0 0  0 1 0 0 0  0 0 1 0 0  0 0 0 1 0"/>
			</filter>
		</defs>
		<mask maskUnits="userSpaceOnUse" x="-222.5" y="-187.2" width="28.8" height="38.1" id="Mask_Mask_1_10_">
			<g transform="matrix( 1, 0, 0, 1, 0,0) " class="st8">
				<g transform="matrix( 1, 0, 0, 1, 0,0) ">
					<g>
						<g id="Mask_Mask_M_Mask_0_Layer0_0_FILL_10_">
							<path class="st9" d="M-194.3-174.1c0.6-0.4,1.2-0.8,1.9-1.1l-2.7-17.2l-14.8,0.7l-3.1,1.6h-7.6l-4.3,1.9l-6.1,36.9l17.9,2.3
								l1.3,2.9l1.9-1.1l0.5,3.2l16.8,2.6l5.8-2.8l-1.1-6.2c-0.1,0-0.2,0-0.4,0c-0.7,0-1.5,0-2.2-0.1c-1.1-0.1-2.2-0.4-3.4-0.9
								l-0.9-0.4c-1.5-0.8-2.7-1.8-3.7-3.1c-1-1.3-1.7-2.8-2.1-4.5c-0.5-2.1-0.4-4.3,0.2-6.5c0.6-2.2,1.7-4.2,3.3-6
								C-196.2-172.7-195.3-173.5-194.3-174.1z"/>
						</g>
					</g>
				</g>
			</g>
		</mask>
		<g class="st10">
			<g transform="matrix( 1, 0, 0, 1, 1.9,-2.7) ">
				<g transform="matrix( 1, 0, 0, 1, 0,0) ">
					<g>
						<g id="M_Background_0_Layer0_0_FILL">
							<path class="st11" d="M-207.2-184.5l-2.3,12.8l-2-11.1h-8.1l-3.7,21.8v0l-1.1,6.7l8,1.4l1.9-12h0l4.8,10.4l3.2-8.3l2.3,15.1
								l8.6,1.3l-5.9-38.1H-207.2z"/>
						</g>
					</g>
				</g>
			</g>
		</g>
		<defs>
			<filter id="Adobe_OpacityMaskFilter_1_" filterUnits="userSpaceOnUse" x="-229.3" y="-190.4" width="39.5" height="47">
				<feColorMatrix  type="matrix" values="1 0 0 0 0  0 1 0 0 0  0 0 1 0 0  0 0 0 1 0"/>
			</filter>
		</defs>
		<mask maskUnits="userSpaceOnUse" x="-229.3" y="-190.4" width="39.5" height="47" id="Mask_Mask_1_9_">
			<g transform="matrix( 1, 0, 0, 1, 0,0) " class="st12">
				<g transform="matrix( 1, 0, 0, 1, 0,0) ">
					<g>
						<g id="Mask_Mask_M_Mask_0_Layer0_0_FILL_9_">
							<path class="st9" d="M-194.3-174.1c0.6-0.4,1.2-0.8,1.9-1.1l-2.7-17.2l-14.8,0.7l-3.1,1.6h-7.6l-4.3,1.9l-6.1,36.9l17.9,2.3
								l1.3,2.9l1.9-1.1l0.5,3.2l16.8,2.6l5.8-2.8l-1.1-6.2c-0.1,0-0.2,0-0.4,0c-0.7,0-1.5,0-2.2-0.1c-1.1-0.1-2.2-0.4-3.4-0.9
								l-0.9-0.4c-1.5-0.8-2.7-1.8-3.7-3.1c-1-1.3-1.7-2.8-2.1-4.5c-0.5-2.1-0.4-4.3,0.2-6.5c0.6-2.2,1.7-4.2,3.3-6
								C-196.2-172.7-195.3-173.5-194.3-174.1z"/>
						</g>
					</g>
				</g>
			</g>
		</mask>
		<g class="st13">
			<g transform="matrix( 1, 0, 0, 1, -1.1,-0.05) ">
				<g transform="matrix( 1, 0, 0, 1, 0,0) ">
					<g>
						<g id="M_Edge_0_Layer0_0_FILL">
							<path class="st6" d="M-211.4-152.1l1.2,3.3l2.5-1.4l0.5,4.1l15.5,2.8l3.1-1.7l-15.5-2.7l-0.8-6.9l-2.2,4.2l-3.6-6.6
								L-211.4-152.1 M-228.2-152.6l13.7,2.2l3.1-1.7l-13.6-2.1L-228.2-152.6z"/>
							
								<linearGradient id="SVGID_2_" gradientUnits="userSpaceOnUse" x1="-557.4982" y1="58.0452" x2="-562.7233" y2="44.0544" gradientTransform="matrix(1 0 0 -1 340.8 -131.5)">
								<stop  offset="0" style="stop-color:#1A457E"/>
								<stop  offset="1" style="stop-color:#14244B"/>
							</linearGradient>
							<path class="st14" d="M-219.5-188.4l-3.1,1.7l-5.6,34.1l3.1-1.6L-219.5-188.4z"/>
							<path class="st15" d="M-207.5-188.4l0.4-1.9l-3.7,1.9H-207.5z"/>
						</g>
					</g>
				</g>
			</g>
		</g>
		<defs>
			<filter id="Adobe_OpacityMaskFilter_2_" filterUnits="userSpaceOnUse" x="-217.9" y="-187.2" width="24.3" height="38.1">
				<feColorMatrix  type="matrix" values="1 0 0 0 0  0 1 0 0 0  0 0 1 0 0  0 0 0 1 0"/>
			</filter>
		</defs>
		<mask maskUnits="userSpaceOnUse" x="-217.9" y="-187.2" width="24.3" height="38.1" id="Mask_Mask_1_8_">
			<g transform="matrix( 1, 0, 0, 1, 0,0) " class="st16">
				<g transform="matrix( 1, 0, 0, 1, 0,0) ">
					<g>
						<g id="Mask_Mask_M_Mask_0_Layer0_0_FILL_8_">
							<path class="st9" d="M-194.3-174.1c0.6-0.4,1.2-0.8,1.9-1.1l-2.7-17.2l-14.8,0.7l-3.1,1.6h-7.6l-4.3,1.9l-6.1,36.9l17.9,2.3
								l1.3,2.9l1.9-1.1l0.5,3.2l16.8,2.6l5.8-2.8l-1.1-6.2c-0.1,0-0.2,0-0.4,0c-0.7,0-1.5,0-2.2-0.1c-1.1-0.1-2.2-0.4-3.4-0.9
								l-0.9-0.4c-1.5-0.8-2.7-1.8-3.7-3.1c-1-1.3-1.7-2.8-2.1-4.5c-0.5-2.1-0.4-4.3,0.2-6.5c0.6-2.2,1.7-4.2,3.3-6
								C-196.2-172.7-195.3-173.5-194.3-174.1z"/>
						</g>
					</g>
				</g>
			</g>
		</mask>
		<g class="st17">
			<g transform="matrix( 1, 0, 0, 1, 6.5,-2.7) ">
				<g transform="matrix( 1, 0, 0, 1, 0,0) ">
					<g>
						<g id="M_Shadows_0_Layer0_0_FILL">
							<path class="st2" d="M-214.7-155.6l0.5,1.1l3.2-8.3l-1.5,1.5L-214.7-155.6 M-220.5-163.4l-1.6,10.3l1.3,0.2l1.9-12
								L-220.5-163.4 M-224.2-182.7l-0.3,1.5h6.9l2,11.1l1.5-1.5l-2-11.1H-224.2 M-206-184.5h-5.8l-0.3,1.5h4.5l5.5,36.3l1.9,0.2
								L-206-184.5z"/>
						</g>
					</g>
				</g>
			</g>
		</g>
		<defs>
			<filter id="Adobe_OpacityMaskFilter_3_" filterUnits="userSpaceOnUse" x="-202.4" y="-171.6" width="8.8" height="22.5">
				<feColorMatrix  type="matrix" values="1 0 0 0 0  0 1 0 0 0  0 0 1 0 0  0 0 0 1 0"/>
			</filter>
		</defs>
		<mask maskUnits="userSpaceOnUse" x="-202.4" y="-171.6" width="8.8" height="22.5" id="Mask_Mask_1_7_">
			<g transform="matrix( 1, 0, 0, 1, 0,0) " class="st18">
				<g transform="matrix( 1, 0, 0, 1, 0,0) ">
					<g>
						<g id="Mask_Mask_M_Mask_0_Layer0_0_FILL_7_">
							<path class="st9" d="M-194.3-174.1c0.6-0.4,1.2-0.8,1.9-1.1l-2.7-17.2l-14.8,0.7l-3.1,1.6h-7.6l-4.3,1.9l-6.1,36.9l17.9,2.3
								l1.3,2.9l1.9-1.1l0.5,3.2l16.8,2.6l5.8-2.8l-1.1-6.2c-0.1,0-0.2,0-0.4,0c-0.7,0-1.5,0-2.2-0.1c-1.1-0.1-2.2-0.4-3.4-0.9
								l-0.9-0.4c-1.5-0.8-2.7-1.8-3.7-3.1c-1-1.3-1.7-2.8-2.1-4.5c-0.5-2.1-0.4-4.3,0.2-6.5c0.6-2.2,1.7-4.2,3.3-6
								C-196.2-172.7-195.3-173.5-194.3-174.1z"/>
						</g>
					</g>
				</g>
			</g>
		</mask>
		<g class="st19">
			<g transform="matrix( 1, 0, 0, 1, 22.25,13.2) ">
				<g transform="matrix( 1, 0, 0, 1, 0,0) ">
					<g>
						<g id="M_Shadow_0_Layer0_0_FILL">
							<path class="st2" d="M-220.8-183.3c-1.6,1.8-2.7,3.8-3.3,5.9c-0.7,2.2-0.7,4.4-0.2,6.5c0.4,1.7,1.1,3.1,2.1,4.4
								c1,1.3,2.2,2.3,3.7,3.1c0.3,0.2,0.6,0.3,0.9,0.4l1.8,0.5l-3.5-22.5C-219.8-184.4-220.3-183.9-220.8-183.3z"/>
						</g>
					</g>
				</g>
			</g>
		</g>
		<defs>
			<filter id="Adobe_OpacityMaskFilter_4_" filterUnits="userSpaceOnUse" x="-226.2" y="-190.4" width="36.4" height="45.3">
				<feColorMatrix  type="matrix" values="1 0 0 0 0  0 1 0 0 0  0 0 1 0 0  0 0 0 1 0"/>
			</filter>
		</defs>
		<mask maskUnits="userSpaceOnUse" x="-226.2" y="-190.4" width="36.4" height="45.3" id="Mask_Mask_1_6_">
			<g transform="matrix( 1, 0, 0, 1, 0,0) " class="st20">
				<g transform="matrix( 1, 0, 0, 1, 0,0) ">
					<g>
						<g id="Mask_Mask_M_Mask_0_Layer0_0_FILL_6_">
							<path class="st9" d="M-194.3-174.1c0.6-0.4,1.2-0.8,1.9-1.1l-2.7-17.2l-14.8,0.7l-3.1,1.6h-7.6l-4.3,1.9l-6.1,36.9l17.9,2.3
								l1.3,2.9l1.9-1.1l0.5,3.2l16.8,2.6l5.8-2.8l-1.1-6.2c-0.1,0-0.2,0-0.4,0c-0.7,0-1.5,0-2.2-0.1c-1.1-0.1-2.2-0.4-3.4-0.9
								l-0.9-0.4c-1.5-0.8-2.7-1.8-3.7-3.1c-1-1.3-1.7-2.8-2.1-4.5c-0.5-2.1-0.4-4.3,0.2-6.5c0.6-2.2,1.7-4.2,3.3-6
								C-196.2-172.7-195.3-173.5-194.3-174.1z"/>
						</g>
					</g>
				</g>
			</g>
		</mask>
		<g class="st21">
			<g transform="matrix( 1, 0, 0, 1, 2.1,-1.75) ">
				<g transform="matrix( 1, 0, 0, 1, 0,0) ">
					<g>
						<g id="M_Border_0_Layer0_0_FILL">
							<path class="st7" d="M-207.3-146l15.5,2.7l-7.2-45.3h-11.4l-0.3,1.9h-12l-5.6,34.2l13.6,2.1l0.8-4.9l3.6,6.6l2.2-4.2
								L-207.3-146 M-209.7-172.6l2.3-12.8h5.8l5.9,38.1l-8.6-1.3l-2.3-15.1l-3.2,8.3l-4.8-10.4h0l-1.9,12l-8-1.4l1.1-6.7v0
								l3.7-21.8h8.1L-209.7-172.6z"/>
						</g>
					</g>
				</g>
			</g>
		</g>
	</g>
	<g transform="matrix( 1, 0, 0, 1, 287.7,178.4) ">
		<g transform="matrix( 1, 0, 0, 1, 0.05,-0.35) ">
			<g transform="matrix( 1, 0, 0, 1, 0,0) ">
				<g>
					<g id="E_Background_0_Layer0_0_FILL">
						<path class="st1" d="M-184.4-157.7c-2.2,0.5-4,1.4-5.6,2.7c-0.2,0.1-0.4,0.3-0.6,0.5c0,0,0,0,0,0c-0.5,0.4-0.9,0.9-1.4,1.4
							c-0.1,0.2-0.3,0.3-0.4,0.5c-0.9,1.3-1.5,2.7-1.8,4.3c-0.3,1.6-0.3,3.3,0.1,5.1c0.2,0.6,0.3,1.1,0.5,1.6v0
							c0.9,2.1,2.4,3.7,4.5,4.9c0.1,0,0.1,0.1,0.2,0.1c0.9,0.5,1.8,0.8,2.8,1.1c0.6,0.1,1.1,0.2,1.7,0.3c1,0.1,2,0.1,3.1,0
							c0.8-0.1,1.6-0.2,2.3-0.4c0.2,0,0.3-0.1,0.5-0.1c3.3-0.8,6.1-2.2,8.3-4c0.6-0.5,1.2-1.1,1.7-1.6l-5.4-4.9
							c-0.7,0.9-1.4,1.5-2.1,2c-0.9,0.6-1.9,1.1-3,1.4c-1.2,0.3-2.1,0.4-2.7,0.2l10.5-11.1c-1.5-1.8-3.4-3.1-5.7-3.8
							C-179.2-158.3-181.8-158.3-184.4-157.7 M-185.5-149.9C-185.5-149.9-185.5-150-185.5-149.9c0.6-0.7,1.3-1,2-1.2
							c0.7-0.2,1.5-0.1,2.2,0.1c0,0,0.1,0,0.1,0l-4.8,5.4c-0.4-0.7-0.5-1.5-0.5-2.3C-186.4-148.6-186-149.3-185.5-149.9
							 M-174.2-167.6l-3.7-5.1l-7.7,9.3l0.7,1.1L-174.2-167.6z"/>
					</g>
				</g>
			</g>
		</g>
		<g transform="matrix( 1, 0, 0, 1, -7.85,0) ">
			<g transform="matrix( 1, 0, 0, 1, 0,0) ">
				<g>
					<g id="E_Edges_0_Layer0_0_FILL">
						<path class="st4" d="M-180.1-160.3l-2.2-2.7l-3.2,1.6l2.2,2.5c-0.1,0-0.2,0.1-0.3,0.1c-3.7,2.1-6.1,5-7.2,8.7
							c-0.9,3-0.9,6,0,9c0.7,2.1,1.9,4,3.7,5.8c3.1,3.2,7.1,4.8,11.9,4.8c4.2-0.1,7.9-1.5,11-4.1c0.3-0.2,0.5-0.5,0.8-0.8
							c-0.1,0-0.2,0.1-0.3,0.1l-1.4,0.7c-2.1,0.9-4.3,1.6-6.4,2c-0.6,0.1-1.2,0.2-1.8,0.2c-0.8,0.1-1.8,0.1-3.2,0
							c-2.5-0.2-4.8-1-6.8-2.2c-2.1-1.3-3.8-3.1-4.9-5.2c-0.7-1.2-1.1-2.5-1.3-3.7c-0.3-1.5-0.4-3-0.2-4.5c0.5-3.7,2-6.7,4.5-9.2
							c0.6-0.6,1.3-1.2,2.1-1.6C-182.2-159.3-181.2-159.8-180.1-160.3z"/>
						
							<linearGradient id="SVGID_3_" gradientUnits="userSpaceOnUse" x1="-459.3175" y1="60.832" x2="-451.0681" y2="70.2002" gradientTransform="matrix(1 0 0 -1 279.85 -106.4)">
							<stop  offset="0" style="stop-color:#1D61A9"/>
							<stop  offset="1" style="stop-color:#14244B"/>
						</linearGradient>
						<path class="st22" d="M-169.5-177.7l-3.1,1.6l-12.9,14.8l3.2-1.6L-169.5-177.7z"/>
					</g>
				</g>
			</g>
		</g>
		<g transform="matrix( 1, 0, 0, 1, -3.8,6.35) ">
			<g transform="matrix( 1, 0, 0, 1, 0,0) ">
				<g>
					<g id="E_Edge_0_Layer0_0_FILL">
						<path class="st23" d="M-177.4-157.7C-177.4-157.7-177.4-157.7-177.4-157.7c-0.8-0.3-1.5-0.3-2.3-0.2c-0.8,0.2-1.5,0.6-2,1.2
							c0,0,0,0,0,0c0.3-0.1,0.7-0.2,1-0.2c0.9-0.1,1.7,0,2.4,0.2L-177.4-157.7z"/>
					</g>
				</g>
			</g>
		</g>
		<g transform="matrix( 1, 0, 0, 1, 2.7,-5.15) ">
			<g transform="matrix( 1, 0, 0, 1, 0,0) ">
				<g>
					<g id="E_Shadows_0_Layer0_0_FILL">
						<path class="st2" d="M-191.2-142.3c-0.1-1.5,0.4-2.8,1.3-3.9c0.1-0.4,0.3-0.7,0.5-1.1c-1.7,1.4-2.7,3.1-2.8,5.1
							c-0.1,1.9,0.5,3.5,1.9,4.8c0.1,0.1,0.1,0.1,0.2,0.2l1.1-0.8c-0.1-0.1-0.2-0.2-0.3-0.3C-190.5-139.3-191.2-140.7-191.2-142.3
							 M-176.5-141.4c-1,1-1.5,1.5-1.5,1.5l5.4,4.8c0.6-0.5,1.1-1,1.6-1.5L-176.5-141.4 M-178.1-139.7c-0.1,0.1-0.3,0.2-0.4,0.3
							c-0.9,0.6-1.9,1.1-3,1.4c-1.2,0.3-2.1,0.4-2.7,0.2l-1.5,1.6c0.6,0.1,1.5,0,2.6-0.3c1.1-0.3,2.1-0.7,3-1.3
							C-179.5-138.3-178.8-138.9-178.1-139.7 M-181-151.2c2.3,0.7,4.2,2,5.7,3.9l1.5-1.6c-1.5-1.8-3.4-3.1-5.7-3.8
							c-2.4-0.7-4.9-0.8-7.6-0.1c-2.2,0.5-4,1.4-5.6,2.7c-0.2,0.1-0.4,0.3-0.6,0.5c0,0,0,0,0,0c-0.4,0.3-0.7,0.7-1.1,1.1l-0.1,0.2
							c1.7-1.4,3.6-2.4,6-3C-185.9-152-183.4-152-181-151.2 M-176.8-162.8l-3.7-5.1l-1.4,1.7l3.2,4.4L-176.8-162.8z"/>
					</g>
				</g>
			</g>
		</g>
		<g transform="matrix( 1, 0, 0, 1, 1.7,-1.8) ">
			<g transform="matrix( 1, 0, 0, 1, 0,0) ">
				<g>
					<g id="E_Border_0_Layer0_0_FILL">
						<path class="st7" d="M-171.9-165.4l-7.1-10.6l-12.8,14.8l2.2,2.7c-2,0.9-3.7,2-5.2,3.3c-2.5,2.5-4,5.5-4.5,9.2
							c-0.1,1.5-0.1,3,0.2,4.5c0.2,1.2,0.6,2.5,1.3,3.7c1.1,2.1,2.7,3.8,4.9,5.2c2,1.2,4.3,2,6.8,2.2c1.3,0.1,2.4,0.1,3.2,0
							c1-0.1,2-0.2,3.1-0.5c2.8-0.7,5.2-1.6,7.3-2.9c1.3-0.7,2.6-1.6,3.7-2.8l3.5-3.5l-2.5-2.3v0l-2.9-2.6v0l-2.2-2l3.1-3.3v0
							l1.2-1.3c-0.1-0.4-0.4-0.9-0.8-1.5l-1-1.2c-1.4-1.8-3.2-3.1-5.2-4.1c-2-1-4.2-1.5-6.6-1.5L-171.9-165.4 M-179.6-171.3l3.7,5.1
							l-10.7,5.3l-0.7-1.1L-179.6-171.3 M-191.7-153.5c1.6-1.3,3.5-2.2,5.6-2.7c2.7-0.6,5.2-0.6,7.6,0.1c2.3,0.7,4.2,2,5.7,3.8
							l-10.5,11.1c0.6,0.1,1.5,0,2.7-0.2c1.1-0.3,2.1-0.7,3-1.4c0.7-0.5,1.4-1.1,2.1-2l5.4,4.9c-0.5,0.5-1.1,1.1-1.7,1.6
							c-2.3,1.9-5,3.2-8.3,4l-0.5,0.1c-0.7,0.2-1.5,0.3-2.3,0.4c-1,0.1-2.1,0.1-3.1,0c-0.5,0-1.1-0.1-1.7-0.3
							c-0.9-0.2-1.9-0.6-2.8-1.1l-0.2-0.1c-2.1-1.1-3.6-2.8-4.5-4.9v0c-0.2-0.4-0.4-0.9-0.5-1.6c-0.4-1.8-0.5-3.5-0.1-5.1
							c0.3-1.6,0.9-3,1.8-4.3c0.1-0.1,0.2-0.3,0.4-0.5c0.5-0.6,0.9-1.1,1.4-1.4l0,0L-191.7-153.5 M-188.7-150
							c-0.1,0.1-0.2,0.3-0.3,0.4c-0.9,1.1-1.3,2.4-1.3,3.9c0.1,1.6,0.7,3,1.9,4.1c0.1,0.1,0.2,0.2,0.3,0.3c0.1,0.1,0.2,0.1,0.3,0.2
							l7.8-8.9l-0.4-0.4c-1.2-1.1-2.6-1.6-4.3-1.6C-186.2-151.8-187.6-151.2-188.7-150 M-183-149.5
							C-182.9-149.5-182.9-149.5-183-149.5l-4.7,5.5c-0.4-0.7-0.5-1.5-0.5-2.3c0.1-0.8,0.4-1.5,0.9-2.1c0,0,0,0,0-0.1
							c0.5-0.6,1.2-1,2-1.2C-184.4-149.9-183.7-149.8-183-149.5z"/>
					</g>
				</g>
			</g>
		</g>
	</g>
	<g transform="matrix( 1, 0, 0, 1, 239.65,201.7) ">
		<defs>
			<filter id="Adobe_OpacityMaskFilter_5_" filterUnits="userSpaceOnUse" x="-173.7" y="-185.1" width="37.4" height="38.1">
				<feColorMatrix  type="matrix" values="1 0 0 0 0  0 1 0 0 0  0 0 1 0 0  0 0 0 1 0"/>
			</filter>
		</defs>
		<mask maskUnits="userSpaceOnUse" x="-173.7" y="-185.1" width="37.4" height="38.1" id="Mask_Mask_2_8_">
			<g transform="matrix( 1, 0, 0, 1, 0,0) " class="st24">
				<g transform="matrix( 1, 0, 0, 1, 0,0) ">
					<g>
						<g id="Mask_Mask_K_Mask_0_Layer0_0_FILL_8_">
							<path class="st9" d="M-149.3-166.6c-0.1-0.6-0.2-1.3-0.2-1.9h0l11.2-9.3l-17.7-16.1l-27.6,9.8l0.8,14.6l3.2-0.8l3,32.5
								l14.9-2.1l6.9-3.8v-3.2l17.7,8.8l6.8-3.9v-13.7c-1,0.2-1.9,0.3-2.7,0.4c-0.8,0.1-1.8,0.1-3.2,0c-2.5-0.2-4.8-1-6.8-2.2
								c-2.1-1.3-3.8-3.1-4.9-5.2C-148.7-164.2-149.1-165.4-149.3-166.6z"/>
						</g>
					</g>
				</g>
			</g>
		</mask>
		<g class="st25">
			<g transform="matrix( 1, 0, 0, 1, 4,-0.4) ">
				<g transform="matrix( 1, 0, 0, 1, 0,0) ">
					<g>
						<g id="K_Background_0_Layer0_0_FILL">
							<path class="st1" d="M-151.5-177.6l-7.5-7.2l-7.7,10.8l-0.6-10.8l-10.4,3.1l0.1,2.8l2.9-0.7l2.8,32.9l6.5-0.9l0-13.2
								l25.1,12.6v-10l-21.6-8.4L-151.5-177.6z"/>
						</g>
					</g>
				</g>
			</g>
		</g>
		<defs>
			<filter id="Adobe_OpacityMaskFilter_6_" filterUnits="userSpaceOnUse" x="-180.1" y="-190.1" width="46.9" height="48.5">
				<feColorMatrix  type="matrix" values="1 0 0 0 0  0 1 0 0 0  0 0 1 0 0  0 0 0 1 0"/>
			</filter>
		</defs>
		<mask maskUnits="userSpaceOnUse" x="-180.1" y="-190.1" width="46.9" height="48.5" id="Mask_Mask_2_7_">
			<g transform="matrix( 1, 0, 0, 1, 0,0) " class="st26">
				<g transform="matrix( 1, 0, 0, 1, 0,0) ">
					<g>
						<g id="Mask_Mask_K_Mask_0_Layer0_0_FILL_7_">
							<path class="st9" d="M-149.3-166.6c-0.1-0.6-0.2-1.3-0.2-1.9h0l11.2-9.3l-17.7-16.1l-27.6,9.8l0.8,14.6l3.2-0.8l3,32.5
								l14.9-2.1l6.9-3.8v-3.2l17.7,8.8l6.8-3.9v-13.7c-1,0.2-1.9,0.3-2.7,0.4c-0.8,0.1-1.8,0.1-3.2,0c-2.5-0.2-4.8-1-6.8-2.2
								c-2.1-1.3-3.8-3.1-4.9-5.2C-148.7-164.2-149.1-165.4-149.3-166.6z"/>
						</g>
					</g>
				</g>
			</g>
		</mask>
		<g class="st27">
			<g transform="matrix( 1, 0, 0, 1, 0.7,0) ">
				<g transform="matrix( 1, 0, 0, 1, 0,0) ">
					<g>
						<g id="K_Edge_0_Layer0_0_FILL">
							<path class="st6" d="M-159.2-156v3.2l22.2,11l3.1-1.7h0L-159.2-156z"/>
							<path class="st4" d="M-160.5-187.4l-0.1,4.6l3.8-7.4l-3.1,1.7L-160.5-187.4 M-180.4-173.5l3-0.7l3,32.6l12-1.8l3.2-1.7
								l-12.1,1.8l-3-32.5l-2.9,0.7L-180.4-173.5z"/>
							
								<linearGradient id="SVGID_4_" gradientUnits="userSpaceOnUse" x1="-419.9235" y1="54.0566" x2="-418.8047" y2="44.172" gradientTransform="matrix(1 0 0 -1 240.35 -129.7)">
								<stop  offset="0" style="stop-color:#16254D"/>
								<stop  offset="1" style="stop-color:#1D61A9"/>
							</linearGradient>
							<path class="st28" d="M-177.7-184.4l-3.2,1.7l0.4,9.2l3.1-1.7L-177.7-184.4z"/>
						</g>
					</g>
				</g>
			</g>
		</g>
		<defs>
			<filter id="Adobe_OpacityMaskFilter_7_" filterUnits="userSpaceOnUse" x="-173.7" y="-185.1" width="37.4" height="37.4">
				<feColorMatrix  type="matrix" values="1 0 0 0 0  0 1 0 0 0  0 0 1 0 0  0 0 0 1 0"/>
			</filter>
		</defs>
		<mask maskUnits="userSpaceOnUse" x="-173.7" y="-185.1" width="37.4" height="37.4" id="Mask_Mask_2_6_">
			<g transform="matrix( 1, 0, 0, 1, 0,0) " class="st29">
				<g transform="matrix( 1, 0, 0, 1, 0,0) ">
					<g>
						<g id="Mask_Mask_K_Mask_0_Layer0_0_FILL_6_">
							<path class="st9" d="M-149.3-166.6c-0.1-0.6-0.2-1.3-0.2-1.9h0l11.2-9.3l-17.7-16.1l-27.6,9.8l0.8,14.6l3.2-0.8l3,32.5
								l14.9-2.1l6.9-3.8v-3.2l17.7,8.8l6.8-3.9v-13.7c-1,0.2-1.9,0.3-2.7,0.4c-0.8,0.1-1.8,0.1-3.2,0c-2.5-0.2-4.8-1-6.8-2.2
								c-2.1-1.3-3.8-3.1-4.9-5.2C-148.7-164.2-149.1-165.4-149.3-166.6z"/>
						</g>
					</g>
				</g>
			</g>
		</mask>
		<g class="st30">
			<g transform="matrix( 1, 0, 0, 1, 4,-1.05) ">
				<g transform="matrix( 1, 0, 0, 1, 0,0) ">
					<g>
						<g id="K_Shadows_0_Layer0_0_FILL">
							<path class="st2" d="M-166.9-146.7l1.5-0.2l0-13.2l-1.5,1.6L-166.9-146.7 M-166.7-173.3l-0.6-10.7l-10.4,3.1l0,1l8.9-2.6
								l0.6,11.3L-166.7-173.3 M-153.6-160.5c1.1,2.1,2.7,3.8,4.9,5.2c2.1,1.3,4.4,2,6.9,2.2v4.8l1.5,0.8v-10l-21.6-8.4l-1.4,1.5
								L-153.6-160.5 M-152.9-175.4l1.4-1.5l-7.5-7.2l-1.2,1.7L-152.9-175.4z"/>
						</g>
					</g>
				</g>
			</g>
		</g>
		<defs>
			<filter id="Adobe_OpacityMaskFilter_8_" filterUnits="userSpaceOnUse" x="-177" y="-190.1" width="43.7" height="46.8">
				<feColorMatrix  type="matrix" values="1 0 0 0 0  0 1 0 0 0  0 0 1 0 0  0 0 0 1 0"/>
			</filter>
		</defs>
		<mask maskUnits="userSpaceOnUse" x="-177" y="-190.1" width="43.7" height="46.8" id="Mask_Mask_2_5_">
			<g transform="matrix( 1, 0, 0, 1, 0,0) " class="st31">
				<g transform="matrix( 1, 0, 0, 1, 0,0) ">
					<g>
						<g id="Mask_Mask_K_Mask_0_Layer0_0_FILL_5_">
							<path class="st9" d="M-149.3-166.6c-0.1-0.6-0.2-1.3-0.2-1.9h0l11.2-9.3l-17.7-16.1l-27.6,9.8l0.8,14.6l3.2-0.8l3,32.5
								l14.9-2.1l6.9-3.8v-3.2l17.7,8.8l6.8-3.9v-13.7c-1,0.2-1.9,0.3-2.7,0.4c-0.8,0.1-1.8,0.1-3.2,0c-2.5-0.2-4.8-1-6.8-2.2
								c-2.1-1.3-3.8-3.1-4.9-5.2C-148.7-164.2-149.1-165.4-149.3-166.6z"/>
						</g>
					</g>
				</g>
			</g>
		</mask>
		<g class="st32">
			<g transform="matrix( 1, 0, 0, 1, 3.9,-1.7) ">
				<g transform="matrix( 1, 0, 0, 1, 0,0) ">
					<g>
						<g id="K_Border_0_Layer0_0_FILL">
							<path class="st7" d="M-156.8-166.4l10.2-10.1l-13.4-12l-3.8,7.4l0.1-7.1l-17.2,5.5l0.4,9.2l2.9-0.7l3,32.5l12.1-1.8v-10.9
								l25.3,12.5v-17L-156.8-166.4 M-158.9-183.4l7.5,7.2l-10.5,11.1l21.6,8.4v10l-25.1-12.6l0,13.2l-6.5,0.9l-2.8-32.9l-2.9,0.7
								l-0.1-2.8l10.4-3.1l0.6,10.8L-158.9-183.4z"/>
						</g>
					</g>
				</g>
			</g>
		</g>
	</g>
	<g transform="matrix( 1, 0, 0, 1, 189.6,219.1) ">
		<g transform="matrix( 1, 0, 0, 1, -2.1,0.6) ">
			<g transform="matrix( 1, 0, 0, 1, 0,0) ">
				<g>
					<g id="O_1_Edge_0_Layer0_0_FILL">
						
							<linearGradient id="SVGID_5_" gradientUnits="userSpaceOnUse" x1="-321.528" y1="32.7099" x2="-317.2497" y2="24.9277" gradientTransform="matrix(1 0 0 -1 187.5 -147.7)">
							<stop  offset="0" style="stop-color:#1B4177"/>
							<stop  offset="1" style="stop-color:#14244B"/>
						</linearGradient>
						<path class="st33" d="M-116.1-177.3c0-0.1,0-0.3,0-0.4c-0.2,2.5-1.1,4.8-2.7,7c-1.6,2.3-3.7,4-6.3,5.1
							c-3.2,1.4-6.3,1.5-9.2,0.3c-2.9-1.2-4.7-3.4-5.6-6.5c-0.8-3-0.4-6,1.3-9.1c1.7-3.1,4.1-5.3,7.3-6.7c2-0.8,4-1.2,6-1
							c1.6,0.1,3.1,0.5,4.4,1.3c-1.8-1.3-3.7-2.1-6-2.2c-0.3-0.1-0.6-0.1-0.9-0.1c-0.1,0-0.1,0-0.2,0c-2.1-0.1-4.2,0.3-6.2,1.3
							c-3.9,1.7-6.8,4.5-8.8,8.4c-1.3,2.5-2,5-1.9,7.5c0,1.2,0.2,2.4,0.6,3.7c1.1,3.7,3.4,6.2,6.8,7.6c1.5,0.6,3.1,0.9,4.8,0.9
							c1.9,0,3.8-0.5,5.9-1.2c3-1.3,5.4-3.3,7.3-5.9c2-2.8,3.1-5.8,3.4-9c0-0.2,0-0.4,0-0.5C-116.1-177.1-116.1-177.2-116.1-177.3z"
							/>
					</g>
				</g>
			</g>
		</g>
		<g transform="matrix( 1, 0, 0, 1, 3,-2.6) ">
			<g transform="matrix( 1, 0, 0, 1, 0,0) ">
				<g>
					<g id="O_1_Background_0_Layer0_0_FILL">
						<path class="st1" d="M-122.4-178.1c-0.6-2.1-1.8-3.7-3.5-4.9c-1.4-0.9-2.9-1.5-4.6-1.6c-1.8-0.1-3.6,0.2-5.5,1
							c-2.9,1.2-5.1,3.3-6.7,6.1c-1.6,2.9-2,5.7-1.2,8.4c0.8,2.9,2.5,4.8,5.1,6c2.6,1.1,5.5,1,8.5-0.2c2.4-1,4.3-2.6,5.8-4.7
							c1.6-2.1,2.4-4.5,2.5-7c0-0.8,0-1.6-0.2-2.4L-122.4-178.1z"/>
					</g>
				</g>
			</g>
		</g>
		<g transform="matrix( 1, 0, 0, 1, 6.65,-6.45) ">
			<g transform="matrix( 1, 0, 0, 1, 0,0) ">
				<g>
					<g id="O_1_Shadows_0_Layer0_0_FILL">
						<path class="st2" d="M-136.7-177.2c-0.3,0.2-0.5,0.5-0.6,0.8c0,0,0,0.1,0,0.1c0.4-0.2,0.8-0.3,1.3-0.3c0,0,0.5-0.5,1.5-1.5
							C-135.4-178-136.1-177.7-136.7-177.2 M-134.2-167.1c1.2-0.6,2.2-1.5,3-2.8c-0.1,0.1-0.3,0.3-0.4,0.4c-1.1,1-2.4,1.5-3.9,1.5
							h-0.1c-1.5,0-2.8-0.5-3.9-1.5c-1.1-1-1.6-2.3-1.6-3.7v0c0-1.4,0.5-2.6,1.6-3.5c0.1-0.1,0.1-0.1,0.2-0.1
							c-1,0.7-1.9,1.5-2.4,2.5c-0.6,0.9-0.9,1.8-0.9,2.8c0,1.4,0.6,2.7,1.7,3.7c1.1,1,2.4,1.5,4,1.5
							C-136.1-166.4-135.2-166.6-134.2-167.1 M-127.4-172.7l0.2,0.7c0.1,0.9,0.2,1.7,0.2,2.5c-0.1,2.5-0.9,4.8-2.5,7.1
							c-0.1,0.1-0.1,0.2-0.2,0.3c0.6-0.6,1.1-1.2,1.6-1.9c1.6-2.1,2.4-4.5,2.5-7c0-0.8,0-1.6-0.2-2.4l-0.2-0.7
							c-0.6-2.1-1.8-3.7-3.5-4.9c-1.4-0.9-2.9-1.5-4.6-1.6c-1.8-0.1-3.6,0.2-5.5,1c-1.8,0.8-3.4,1.9-4.7,3.3c1-0.8,2-1.4,3.2-1.9
							c1.8-0.8,3.6-1.1,5.5-1c1.8,0.1,3.4,0.7,4.7,1.6C-129.1-176.5-127.9-174.8-127.4-172.7 M-132.3-172.7c0.1-0.1,0.3-0.2,0.4-0.3
							c0.7-0.6,1-1.3,1-2.1c0-0.3,0-0.5-0.1-0.8c-0.1,0.2-0.6,0.7-1.5,1.5c0.1,0.3,0.1,0.5,0.1,0.8c0,0.4-0.1,0.8-0.3,1.1
							C-132.5-172.5-132.4-172.6-132.3-172.7z"/>
					</g>
				</g>
			</g>
		</g>
		<g transform="matrix( 1, 0, 0, 1, 2.95,-2.05) ">
			<g transform="matrix( 1, 0, 0, 1, 0,0) ">
				<g>
					<g id="O_1_Border_0_Layer0_0_FILL">
						<path class="st7" d="M-126.1-186.6c-1.7-0.8-3.5-1.1-5.4-1.1c-1.9,0-3.8,0.4-5.7,1.2c-1.1,0.5-2.2,1.1-3.1,1.8
							c-3.8,2.9-6.1,6.6-6.7,11.1c-0.2,1.7-0.1,3.4,0.4,5c0.5,1.7,1.3,3.2,2.3,4.5c1.1,1.3,2.4,2.3,4,3.1c1.7,0.8,3.5,1.2,5.5,1.2
							s3.9-0.4,5.8-1.2c1.8-0.8,3.5-1.9,5-3.4c1.1-1,2-2.1,2.7-3.5c1-1.8,1.7-3.6,2-5.5c0.3-2,0.2-3.9-0.3-5.7
							c-0.6-2-1.6-3.8-3.1-5.2C-123.6-185.2-124.7-186-126.1-186.6 M-130.5-185.1c1.7,0.1,3.3,0.6,4.6,1.6c1.7,1.2,2.9,2.8,3.5,4.9
							l0.2,0.7c0.2,0.8,0.3,1.6,0.2,2.4c-0.1,2.5-0.9,4.8-2.5,7c-1.5,2.1-3.4,3.7-5.8,4.7c-3,1.3-5.8,1.3-8.5,0.2
							c-2.6-1.1-4.3-3.1-5.1-6c-0.8-2.7-0.4-5.5,1.2-8.4c1.5-2.9,3.8-4.9,6.7-6.1C-134.1-184.9-132.3-185.2-130.5-185.1
							 M-130.9-182.5c-0.4-0.1-0.8-0.1-1-0.1c-1.6,0-2.9,0.5-4,1.5c-1.1,1-1.6,2.2-1.6,3.6c0,1.5,0.5,2.7,1.6,3.7
							c1.1,1,2.4,1.5,3.9,1.5c1.6,0,2.9-0.5,4-1.5c1.1-1,1.6-2.3,1.6-3.7c0-1-0.3-2-0.9-2.8c0.1,0.2,0.1,0.5,0.1,0.8
							c0,0.8-0.3,1.5-1,2.1c-0.7,0.6-1.5,0.9-2.4,0.9s-1.7-0.3-2.4-0.9c-0.7-0.6-1-1.3-1-2.1c0-0.8,0.3-1.5,0.9-2
							C-132.4-182.1-131.7-182.4-130.9-182.5z"/>
					</g>
				</g>
			</g>
		</g>
	</g>
	<g transform="matrix( 1, 0, 0, 1, 131.55,214.15) ">
		<g transform="matrix( 1, 0, 0, 1, -5.7,9) ">
			<g transform="matrix( 1, 0, 0, 1, 0,0) ">
				<g>
					<g id="P_Edge_0_Layer0_0_FILL">
						
							<linearGradient id="SVGID_6_" gradientUnits="userSpaceOnUse" x1="-227.8595" y1="37.9597" x2="-221.1469" y2="21.1289" gradientTransform="matrix(1 0 0 -1 125.85 -151.15)">
							<stop  offset="0" style="stop-color:#154B8C"/>
							<stop  offset="1" style="stop-color:#14244B"/>
						</linearGradient>
						<path class="st34" d="M-111.3-183l3.1-1.4l13.5,30.6l12.8-4.1l3.2-2.1l-12.8,4.1l-14-31.3l-3.1,1.5L-111.3-183z"/>
						
							<linearGradient id="SVGID_7_" gradientUnits="userSpaceOnUse" x1="-244.2776" y1="46.6576" x2="-235.8069" y2="33.9208" gradientTransform="matrix(1 0 0 -1 125.85 -151.15)">
							<stop  offset="0" style="stop-color:#16254D"/>
							<stop  offset="1" style="stop-color:#1D61A9"/>
						</linearGradient>
						<path class="st35" d="M-108.7-185.6l-8.4-14.2l-2.6,2.7l8.4,14.1L-108.7-185.6z"/>
					</g>
				</g>
			</g>
		</g>
		<g transform="matrix( 1, 0, 0, 1, 3.85,-2.95) ">
			<g transform="matrix( 1, 0, 0, 1, 0,0) ">
				<g>
					<g id="P_Background_0_Layer0_0_FILL">
						<path class="st11" d="M-86.8-185.7c-1-2.3-2.7-4.1-5.1-5.5c-1.5-1-3.3-1.6-5.4-1.8c-2.6-0.5-5.4-0.5-8.5,0
							c-3.2,0.5-6.4,1.4-9.7,2.8c-2.4,1-4.6,2.2-6.7,3.5l5.1,8.7l3.5-1.7l14.2,31.7l6.9-2.2l-4.3-16.4c4.1-2.5,7-5.6,8.9-9.2
							C-85.8-179.6-85.5-182.8-86.8-185.7 M-94.4-179.4c0.1,0.8,0.1,1.5,0,2.2c-0.3,0.8-1,1.7-2.1,2.6l-1.7-5.5
							c-0.3-0.8-0.4-1.2-0.4-1.4c1.1-0.2,2-0.1,2.9,0.3C-95.1-180.6-94.6-180.1-94.4-179.4 M-98.3-180.2
							C-98.2-180-98.2-180-98.3-180.2C-98.3-180.1-98.3-180.2-98.3-180.2L-98.3-180.2z"/>
					</g>
				</g>
			</g>
		</g>
		<g transform="matrix( 1, 0, 0, 1, 19.1,-18) ">
			<g transform="matrix( 1, 0, 0, 1, 0,0) ">
				<g>
					<g id="P_Shadow_0_Layer0_0_FILL">
						<path class="st23" d="M-109.7-164.3c-0.1-0.7-0.6-1.3-1.4-1.7c-0.8-0.4-1.8-0.5-2.9-0.3c0.1,0.3,0.2,0.7,0.3,1
							c0.6,0.1,1,0.2,1.3,0.3c0.8,0.3,1.3,0.9,1.4,1.7c0.3,1.4,0.2,2.5-0.3,3.4c0.8-0.7,1.3-1.5,1.6-2.3
							C-109.6-162.8-109.6-163.5-109.7-164.3z"/>
					</g>
				</g>
			</g>
		</g>
		<g transform="matrix( 1, 0, 0, 1, 3.85,-4.65) ">
			<g transform="matrix( 1, 0, 0, 1, 0,0) ">
				<g>
					<g id="P_Shadows_0_Layer0_0_FILL">
						<path class="st2" d="M-98.2-163.9l4.2,15.8l1.7-0.5l-4.3-16.4L-98.2-163.9 M-101.6-180.8l-1.1,0.9l3.7,12.1
							c0.8-0.5,1.6-1.1,2.4-1.8c-0.4,0.3-0.8,0.6-1.3,0.9L-101.6-180.8 M-93.3-187.9c2.4,1.3,4.1,3.1,5.1,5.5c0.9,2.1,1,4.4,0.2,7
							c-0.7,2.3-1.9,4.5-3.7,6.6c1.7-1.7,3-3.5,4-5.4c1.9-3.6,2.2-6.9,0.9-9.7c-1-2.3-2.7-4.1-5.1-5.5c-1.5-1-3.3-1.6-5.4-1.8
							c-2.6-0.5-5.4-0.5-8.5,0c-3.2,0.5-6.4,1.4-9.7,2.8c-2.4,1-4.6,2.2-6.7,3.5l0.3,0.4c1.6-0.9,3.2-1.7,4.9-2.4
							c3.3-1.4,6.5-2.3,9.7-2.8c3-0.5,5.9-0.5,8.5,0C-96.6-189.6-94.8-188.9-93.3-187.9z"/>
					</g>
				</g>
			</g>
		</g>
		<g transform="matrix( 1, 0, 0, 1, 2.6,-2.2) ">
			<g transform="matrix( 1, 0, 0, 1, 0,0) ">
				<g>
					<g id="P_Border_0_Layer0_0_FILL">
						<path class="st7" d="M-85-191.8c-1.1-1.2-2.3-2.2-3.7-3c-2-1.3-4.2-2.1-6.7-2.4c-3-0.5-6.2-0.5-9.6,0c-3.5,0.5-6.9,1.5-10.5,3
							c-2.7,1.1-5,2.4-7.2,3.7l-2.7,1.7l8.4,14.2l3.1-1.5l14,31.3l12.8-4.1l-4.5-17.2c1.1-0.8,2.1-1.7,3-2.5c3.1-3.2,5.4-7,6.7-11.1
							c0.7-3,0.5-5.7-0.6-8.2C-83.1-189.2-83.9-190.6-85-191.8 M-90.6-191.9c2.4,1.4,4.1,3.2,5.1,5.5c1.2,2.9,0.9,6.1-0.9,9.7
							c-1,2-2.4,3.8-4,5.4c-1.4,1.4-3,2.7-4.9,3.8v0l4.3,16.4l-6.9,2.2l-14.2-31.7l-3.5,1.7l-5.1-8.7c2-1.3,4.2-2.4,6.7-3.5
							c3.3-1.4,6.5-2.3,9.7-2.8c3.1-0.5,5.9-0.5,8.5,0C-93.9-193.5-92.1-192.9-90.6-191.9 M-94.3-184c-1.9-0.7-3.9-0.4-6,0.7
							c0,0-0.1,0-0.1,0l3.7,12.1c0.5-0.3,0.9-0.6,1.3-0.9c1.4-1,2.4-2,3.1-2.8c1.2-1.6,1.7-3.5,1.3-5.6
							C-91.3-182.2-92.4-183.4-94.3-184 M-96.8-180.2c0-0.2-0.1-0.4-0.2-0.6c-0.1-0.3-0.2-0.6-0.3-0.9c1-0.2,1.8-0.1,2.5,0.2
							c0.7,0.4,1.2,0.9,1.3,1.5c0.1,0.7,0.1,1.4,0,2c0,0.2-0.1,0.4-0.2,0.6c-0.3,0.7-0.8,1.4-1.6,2.2L-96.8-180.2z"/>
					</g>
				</g>
			</g>
		</g>
	</g>
</g>
</svg>
